<mxfile host="app.diagrams.net" modified="2024-02-28T03:38:02.901Z" agent="Mozilla/5.0 (Windows NT 10.0; Win64; x64) AppleWebKit/537.36 (KHTML, like Gecko) Chrome/122.0.0.0 Safari/537.36" etag="zeU_VPgHpvib6j-f9Uux" version="23.1.7" type="device">
  <diagram name="Page-1" id="WpKOWnJHw4itFoZEDFeJ">
    <mxGraphModel dx="1434" dy="750" grid="1" gridSize="10" guides="1" tooltips="1" connect="1" arrows="1" fold="1" page="1" pageScale="1" pageWidth="827" pageHeight="1169" math="0" shadow="0">
      <root>
        <mxCell id="0" />
        <mxCell id="1" parent="0" />
        <mxCell id="GylP04jUSwbVJnQTzgqz-55" value="N" style="text;html=1;align=center;verticalAlign=middle;resizable=0;points=[];autosize=1;strokeColor=none;fillColor=none;strokeWidth=2;" vertex="1" parent="1">
          <mxGeometry x="375" y="563" width="30" height="30" as="geometry" />
        </mxCell>
        <mxCell id="GylP04jUSwbVJnQTzgqz-52" value="" style="rounded=0;whiteSpace=wrap;html=1;fillColor=none;strokeWidth=2;dashed=1;" vertex="1" parent="1">
          <mxGeometry x="200" y="420" width="360" height="146" as="geometry" />
        </mxCell>
        <mxCell id="GylP04jUSwbVJnQTzgqz-20" style="edgeStyle=orthogonalEdgeStyle;rounded=0;orthogonalLoop=1;jettySize=auto;html=1;entryX=0.5;entryY=0;entryDx=0;entryDy=0;exitX=0;exitY=0.5;exitDx=0;exitDy=0;strokeWidth=2;" edge="1" parent="1" source="GylP04jUSwbVJnQTzgqz-1" target="GylP04jUSwbVJnQTzgqz-2">
          <mxGeometry relative="1" as="geometry">
            <Array as="points">
              <mxPoint x="260" y="90" />
            </Array>
          </mxGeometry>
        </mxCell>
        <mxCell id="GylP04jUSwbVJnQTzgqz-21" style="edgeStyle=orthogonalEdgeStyle;rounded=0;orthogonalLoop=1;jettySize=auto;html=1;exitX=1;exitY=0.5;exitDx=0;exitDy=0;entryX=0.5;entryY=0;entryDx=0;entryDy=0;strokeWidth=2;" edge="1" parent="1" source="GylP04jUSwbVJnQTzgqz-1" target="GylP04jUSwbVJnQTzgqz-3">
          <mxGeometry relative="1" as="geometry" />
        </mxCell>
        <mxCell id="GylP04jUSwbVJnQTzgqz-1" value="Begin" style="ellipse;whiteSpace=wrap;html=1;strokeWidth=2;" vertex="1" parent="1">
          <mxGeometry x="320" y="70" width="120" height="40" as="geometry" />
        </mxCell>
        <mxCell id="GylP04jUSwbVJnQTzgqz-2" value="Range coords input" style="rounded=0;whiteSpace=wrap;html=1;strokeWidth=2;" vertex="1" parent="1">
          <mxGeometry x="200" y="120" width="120" height="30" as="geometry" />
        </mxCell>
        <mxCell id="GylP04jUSwbVJnQTzgqz-23" style="edgeStyle=orthogonalEdgeStyle;rounded=0;orthogonalLoop=1;jettySize=auto;html=1;exitX=0.5;exitY=1;exitDx=0;exitDy=0;entryX=0.5;entryY=0;entryDx=0;entryDy=0;entryPerimeter=0;strokeWidth=2;" edge="1" parent="1" source="GylP04jUSwbVJnQTzgqz-3" target="GylP04jUSwbVJnQTzgqz-6">
          <mxGeometry relative="1" as="geometry">
            <mxPoint x="380" y="220" as="targetPoint" />
            <Array as="points">
              <mxPoint x="500" y="170" />
              <mxPoint x="381" y="170" />
            </Array>
          </mxGeometry>
        </mxCell>
        <mxCell id="GylP04jUSwbVJnQTzgqz-3" value="Radius input" style="rounded=0;whiteSpace=wrap;html=1;strokeWidth=2;" vertex="1" parent="1">
          <mxGeometry x="440" y="120" width="120" height="30" as="geometry" />
        </mxCell>
        <mxCell id="GylP04jUSwbVJnQTzgqz-26" style="edgeStyle=orthogonalEdgeStyle;rounded=0;orthogonalLoop=1;jettySize=auto;html=1;strokeWidth=2;" edge="1" parent="1" source="GylP04jUSwbVJnQTzgqz-4">
          <mxGeometry relative="1" as="geometry">
            <mxPoint x="380" y="200" as="targetPoint" />
          </mxGeometry>
        </mxCell>
        <mxCell id="GylP04jUSwbVJnQTzgqz-4" value="Num of aggregrates: N" style="rounded=0;whiteSpace=wrap;html=1;strokeWidth=2;" vertex="1" parent="1">
          <mxGeometry x="440" y="180" width="140" height="40" as="geometry" />
        </mxCell>
        <mxCell id="GylP04jUSwbVJnQTzgqz-27" style="edgeStyle=orthogonalEdgeStyle;rounded=0;orthogonalLoop=1;jettySize=auto;html=1;exitX=0.5;exitY=1;exitDx=0;exitDy=0;exitPerimeter=0;entryX=0.5;entryY=0;entryDx=0;entryDy=0;strokeWidth=2;" edge="1" parent="1" source="GylP04jUSwbVJnQTzgqz-6" target="GylP04jUSwbVJnQTzgqz-7">
          <mxGeometry relative="1" as="geometry" />
        </mxCell>
        <mxCell id="GylP04jUSwbVJnQTzgqz-28" style="edgeStyle=orthogonalEdgeStyle;rounded=0;orthogonalLoop=1;jettySize=auto;html=1;entryX=1;entryY=0.5;entryDx=0;entryDy=0;exitX=1;exitY=0.5;exitDx=0;exitDy=0;exitPerimeter=0;strokeWidth=2;" edge="1" parent="1" source="GylP04jUSwbVJnQTzgqz-6" target="GylP04jUSwbVJnQTzgqz-18">
          <mxGeometry relative="1" as="geometry">
            <Array as="points">
              <mxPoint x="600" y="240" />
              <mxPoint x="600" y="770" />
            </Array>
          </mxGeometry>
        </mxCell>
        <mxCell id="GylP04jUSwbVJnQTzgqz-6" value="Curr num &amp;gt; N" style="strokeWidth=2;html=1;shape=mxgraph.flowchart.decision;whiteSpace=wrap;" vertex="1" parent="1">
          <mxGeometry x="320" y="220" width="120" height="40" as="geometry" />
        </mxCell>
        <mxCell id="GylP04jUSwbVJnQTzgqz-7" value="Randomly generate coords and radius" style="rounded=0;whiteSpace=wrap;html=1;strokeWidth=2;" vertex="1" parent="1">
          <mxGeometry x="320" y="300" width="120" height="40" as="geometry" />
        </mxCell>
        <mxCell id="GylP04jUSwbVJnQTzgqz-31" style="edgeStyle=orthogonalEdgeStyle;rounded=0;orthogonalLoop=1;jettySize=auto;html=1;exitX=0.5;exitY=1;exitDx=0;exitDy=0;exitPerimeter=0;entryX=0.5;entryY=0;entryDx=0;entryDy=0;strokeWidth=2;" edge="1" parent="1" source="GylP04jUSwbVJnQTzgqz-9" target="GylP04jUSwbVJnQTzgqz-10">
          <mxGeometry relative="1" as="geometry" />
        </mxCell>
        <mxCell id="GylP04jUSwbVJnQTzgqz-38" value="" style="edgeStyle=orthogonalEdgeStyle;rounded=0;orthogonalLoop=1;jettySize=auto;html=1;strokeWidth=2;" edge="1" parent="1" source="GylP04jUSwbVJnQTzgqz-9" target="GylP04jUSwbVJnQTzgqz-15">
          <mxGeometry relative="1" as="geometry" />
        </mxCell>
        <mxCell id="GylP04jUSwbVJnQTzgqz-9" value="First aggregate?" style="strokeWidth=2;html=1;shape=mxgraph.flowchart.decision;whiteSpace=wrap;" vertex="1" parent="1">
          <mxGeometry x="300" y="360" width="160" height="40" as="geometry" />
        </mxCell>
        <mxCell id="GylP04jUSwbVJnQTzgqz-10" value="Aggregrate&lt;br&gt;distance L" style="rounded=0;whiteSpace=wrap;html=1;strokeWidth=2;" vertex="1" parent="1">
          <mxGeometry x="320" y="438" width="120" height="40" as="geometry" />
        </mxCell>
        <mxCell id="GylP04jUSwbVJnQTzgqz-34" value="" style="edgeStyle=orthogonalEdgeStyle;rounded=0;orthogonalLoop=1;jettySize=auto;html=1;entryX=0.5;entryY=0;entryDx=0;entryDy=0;entryPerimeter=0;strokeWidth=2;" edge="1" parent="1" source="GylP04jUSwbVJnQTzgqz-12" target="GylP04jUSwbVJnQTzgqz-16">
          <mxGeometry relative="1" as="geometry">
            <mxPoint x="440" y="590" as="targetPoint" />
          </mxGeometry>
        </mxCell>
        <mxCell id="GylP04jUSwbVJnQTzgqz-47" style="edgeStyle=orthogonalEdgeStyle;rounded=0;orthogonalLoop=1;jettySize=auto;html=1;exitX=0;exitY=0.5;exitDx=0;exitDy=0;exitPerimeter=0;entryX=0;entryY=0.5;entryDx=0;entryDy=0;strokeWidth=2;" edge="1" parent="1" source="GylP04jUSwbVJnQTzgqz-12" target="GylP04jUSwbVJnQTzgqz-10">
          <mxGeometry relative="1" as="geometry" />
        </mxCell>
        <mxCell id="GylP04jUSwbVJnQTzgqz-12" value="L &amp;gt; radius &lt;br&gt;and loop not end" style="strokeWidth=2;html=1;shape=mxgraph.flowchart.decision;whiteSpace=wrap;" vertex="1" parent="1">
          <mxGeometry x="300" y="500" width="160" height="60" as="geometry" />
        </mxCell>
        <mxCell id="GylP04jUSwbVJnQTzgqz-14" style="edgeStyle=orthogonalEdgeStyle;rounded=0;orthogonalLoop=1;jettySize=auto;html=1;exitX=0.5;exitY=1;exitDx=0;exitDy=0;strokeWidth=2;" edge="1" parent="1" source="GylP04jUSwbVJnQTzgqz-4" target="GylP04jUSwbVJnQTzgqz-4">
          <mxGeometry relative="1" as="geometry" />
        </mxCell>
        <mxCell id="GylP04jUSwbVJnQTzgqz-15" value="Save coords &lt;br&gt;and radius" style="rounded=0;whiteSpace=wrap;html=1;strokeWidth=2;" vertex="1" parent="1">
          <mxGeometry x="200" y="360" width="70" height="40" as="geometry" />
        </mxCell>
        <mxCell id="GylP04jUSwbVJnQTzgqz-36" value="" style="edgeStyle=orthogonalEdgeStyle;rounded=0;orthogonalLoop=1;jettySize=auto;html=1;strokeWidth=2;" edge="1" parent="1" source="GylP04jUSwbVJnQTzgqz-16" target="GylP04jUSwbVJnQTzgqz-17">
          <mxGeometry relative="1" as="geometry" />
        </mxCell>
        <mxCell id="GylP04jUSwbVJnQTzgqz-16" value="Check all distance?" style="strokeWidth=2;html=1;shape=mxgraph.flowchart.decision;whiteSpace=wrap;" vertex="1" parent="1">
          <mxGeometry x="300" y="593" width="160" height="60" as="geometry" />
        </mxCell>
        <mxCell id="GylP04jUSwbVJnQTzgqz-37" value="" style="edgeStyle=orthogonalEdgeStyle;rounded=0;orthogonalLoop=1;jettySize=auto;html=1;strokeWidth=2;" edge="1" parent="1" source="GylP04jUSwbVJnQTzgqz-17" target="GylP04jUSwbVJnQTzgqz-18">
          <mxGeometry relative="1" as="geometry" />
        </mxCell>
        <mxCell id="GylP04jUSwbVJnQTzgqz-17" value="Save coords &lt;br&gt;and radius" style="rounded=0;whiteSpace=wrap;html=1;strokeWidth=2;" vertex="1" parent="1">
          <mxGeometry x="320" y="680" width="120" height="40" as="geometry" />
        </mxCell>
        <mxCell id="GylP04jUSwbVJnQTzgqz-18" value="Generate final model" style="rounded=0;whiteSpace=wrap;html=1;strokeWidth=2;" vertex="1" parent="1">
          <mxGeometry x="320" y="750" width="120" height="40" as="geometry" />
        </mxCell>
        <mxCell id="GylP04jUSwbVJnQTzgqz-22" style="edgeStyle=orthogonalEdgeStyle;rounded=0;orthogonalLoop=1;jettySize=auto;html=1;entryX=0.5;entryY=0;entryDx=0;entryDy=0;entryPerimeter=0;strokeWidth=2;" edge="1" parent="1" source="GylP04jUSwbVJnQTzgqz-2" target="GylP04jUSwbVJnQTzgqz-6">
          <mxGeometry relative="1" as="geometry">
            <Array as="points">
              <mxPoint x="260" y="170" />
              <mxPoint x="380" y="170" />
            </Array>
          </mxGeometry>
        </mxCell>
        <mxCell id="GylP04jUSwbVJnQTzgqz-29" value="N" style="text;html=1;align=center;verticalAlign=middle;resizable=0;points=[];autosize=1;strokeColor=none;fillColor=none;strokeWidth=2;" vertex="1" parent="1">
          <mxGeometry x="375" y="262" width="30" height="30" as="geometry" />
        </mxCell>
        <mxCell id="GylP04jUSwbVJnQTzgqz-30" style="edgeStyle=orthogonalEdgeStyle;rounded=0;orthogonalLoop=1;jettySize=auto;html=1;exitX=0.5;exitY=1;exitDx=0;exitDy=0;entryX=0.5;entryY=0;entryDx=0;entryDy=0;entryPerimeter=0;strokeWidth=2;" edge="1" parent="1" source="GylP04jUSwbVJnQTzgqz-7" target="GylP04jUSwbVJnQTzgqz-9">
          <mxGeometry relative="1" as="geometry" />
        </mxCell>
        <mxCell id="GylP04jUSwbVJnQTzgqz-32" style="edgeStyle=orthogonalEdgeStyle;rounded=0;orthogonalLoop=1;jettySize=auto;html=1;exitX=0.5;exitY=1;exitDx=0;exitDy=0;entryX=0.5;entryY=0;entryDx=0;entryDy=0;entryPerimeter=0;strokeWidth=2;" edge="1" parent="1" source="GylP04jUSwbVJnQTzgqz-10" target="GylP04jUSwbVJnQTzgqz-12">
          <mxGeometry relative="1" as="geometry" />
        </mxCell>
        <mxCell id="GylP04jUSwbVJnQTzgqz-33" style="edgeStyle=orthogonalEdgeStyle;rounded=0;orthogonalLoop=1;jettySize=auto;html=1;exitX=0.5;exitY=1;exitDx=0;exitDy=0;exitPerimeter=0;strokeWidth=2;" edge="1" parent="1" source="GylP04jUSwbVJnQTzgqz-12" target="GylP04jUSwbVJnQTzgqz-12">
          <mxGeometry relative="1" as="geometry" />
        </mxCell>
        <mxCell id="GylP04jUSwbVJnQTzgqz-39" style="edgeStyle=orthogonalEdgeStyle;rounded=0;orthogonalLoop=1;jettySize=auto;html=1;exitX=0.5;exitY=0;exitDx=0;exitDy=0;entryX=0;entryY=0.5;entryDx=0;entryDy=0;entryPerimeter=0;strokeWidth=2;" edge="1" parent="1" source="GylP04jUSwbVJnQTzgqz-15" target="GylP04jUSwbVJnQTzgqz-6">
          <mxGeometry relative="1" as="geometry" />
        </mxCell>
        <mxCell id="GylP04jUSwbVJnQTzgqz-41" style="edgeStyle=orthogonalEdgeStyle;rounded=0;orthogonalLoop=1;jettySize=auto;html=1;entryX=0;entryY=0.5;entryDx=0;entryDy=0;entryPerimeter=0;strokeWidth=2;" edge="1" parent="1" source="GylP04jUSwbVJnQTzgqz-16" target="GylP04jUSwbVJnQTzgqz-6">
          <mxGeometry relative="1" as="geometry">
            <Array as="points">
              <mxPoint x="160" y="623" />
              <mxPoint x="160" y="240" />
            </Array>
          </mxGeometry>
        </mxCell>
        <mxCell id="GylP04jUSwbVJnQTzgqz-42" style="edgeStyle=orthogonalEdgeStyle;rounded=0;orthogonalLoop=1;jettySize=auto;html=1;entryX=0;entryY=0.5;entryDx=0;entryDy=0;entryPerimeter=0;strokeWidth=2;" edge="1" parent="1" source="GylP04jUSwbVJnQTzgqz-17" target="GylP04jUSwbVJnQTzgqz-6">
          <mxGeometry relative="1" as="geometry">
            <Array as="points">
              <mxPoint x="120" y="700" />
              <mxPoint x="120" y="240" />
            </Array>
          </mxGeometry>
        </mxCell>
        <mxCell id="GylP04jUSwbVJnQTzgqz-43" value="Y" style="text;html=1;align=center;verticalAlign=middle;resizable=0;points=[];autosize=1;strokeColor=none;fillColor=none;strokeWidth=2;" vertex="1" parent="1">
          <mxGeometry x="274" y="353" width="30" height="30" as="geometry" />
        </mxCell>
        <mxCell id="GylP04jUSwbVJnQTzgqz-46" value="Y" style="text;html=1;align=center;verticalAlign=middle;resizable=0;points=[];autosize=1;strokeColor=none;fillColor=none;strokeWidth=2;" vertex="1" parent="1">
          <mxGeometry x="276" y="478" width="30" height="30" as="geometry" />
        </mxCell>
        <mxCell id="GylP04jUSwbVJnQTzgqz-48" value="N" style="text;html=1;align=center;verticalAlign=middle;resizable=0;points=[];autosize=1;strokeColor=none;fillColor=none;strokeWidth=2;" vertex="1" parent="1">
          <mxGeometry x="375" y="397" width="30" height="30" as="geometry" />
        </mxCell>
        <mxCell id="GylP04jUSwbVJnQTzgqz-49" value="N" style="text;html=1;align=center;verticalAlign=middle;resizable=0;points=[];autosize=1;strokeColor=none;fillColor=none;strokeWidth=2;" vertex="1" parent="1">
          <mxGeometry x="210" y="599" width="30" height="30" as="geometry" />
        </mxCell>
        <mxCell id="GylP04jUSwbVJnQTzgqz-50" value="Give up this attempt" style="text;html=1;align=center;verticalAlign=middle;resizable=0;points=[];autosize=1;strokeColor=none;fillColor=none;strokeWidth=2;" vertex="1" parent="1">
          <mxGeometry x="160" y="622" width="130" height="30" as="geometry" />
        </mxCell>
        <mxCell id="GylP04jUSwbVJnQTzgqz-53" value="Inner loop" style="text;html=1;align=center;verticalAlign=middle;resizable=0;points=[];autosize=1;strokeColor=none;fillColor=none;strokeWidth=2;" vertex="1" parent="1">
          <mxGeometry x="480" y="480" width="80" height="30" as="geometry" />
        </mxCell>
        <mxCell id="GylP04jUSwbVJnQTzgqz-54" value="Y" style="text;html=1;align=center;verticalAlign=middle;resizable=0;points=[];autosize=1;strokeColor=none;fillColor=none;strokeWidth=2;" vertex="1" parent="1">
          <mxGeometry x="495" y="237" width="30" height="30" as="geometry" />
        </mxCell>
      </root>
    </mxGraphModel>
  </diagram>
</mxfile>
